<mxfile host="app.diagrams.net" modified="2022-09-01T03:13:53.150Z" agent="5.0 (Windows NT 10.0; Win64; x64) AppleWebKit/537.36 (KHTML, like Gecko) Chrome/104.0.5112.102 Safari/537.36 Edg/104.0.1293.70" etag="l1q7mea1-7Czul77IupQ" version="20.2.7" type="github">
  <diagram id="dluqdiKhtFVeNAOIaq5W" name="第 1 页">
    <mxGraphModel dx="1038" dy="579" grid="1" gridSize="10" guides="1" tooltips="1" connect="1" arrows="1" fold="1" page="1" pageScale="1" pageWidth="827" pageHeight="1169" math="0" shadow="0">
      <root>
        <mxCell id="0" />
        <mxCell id="1" parent="0" />
        <mxCell id="dswGkKhMzSl7C8TvJAAN-27" value="" style="rounded=0;whiteSpace=wrap;html=1;fontSize=18;fontColor=#000000;fillColor=default;dashed=1;" parent="1" vertex="1">
          <mxGeometry x="160" y="380" width="120" height="120" as="geometry" />
        </mxCell>
        <mxCell id="dswGkKhMzSl7C8TvJAAN-1" value="" style="fontColor=#0066CC;verticalAlign=top;verticalLabelPosition=bottom;labelPosition=center;align=center;html=1;outlineConnect=0;fillColor=#CCCCCC;strokeColor=#6881B3;gradientColor=none;gradientDirection=north;strokeWidth=2;shape=mxgraph.networks.pc;fontSize=18;" parent="1" vertex="1">
          <mxGeometry x="160" y="160" width="120" height="120" as="geometry" />
        </mxCell>
        <mxCell id="dswGkKhMzSl7C8TvJAAN-2" value="" style="fontColor=#0066CC;verticalAlign=top;verticalLabelPosition=bottom;labelPosition=center;align=center;html=1;outlineConnect=0;fillColor=#CCCCCC;strokeColor=#6881B3;gradientColor=none;gradientDirection=north;strokeWidth=2;shape=mxgraph.networks.pc;fontSize=18;" parent="1" vertex="1">
          <mxGeometry x="440" y="160" width="120" height="120" as="geometry" />
        </mxCell>
        <mxCell id="dswGkKhMzSl7C8TvJAAN-4" value="VM on src server" style="text;html=1;strokeColor=none;fillColor=none;align=center;verticalAlign=middle;whiteSpace=wrap;rounded=0;fontSize=18;" parent="1" vertex="1">
          <mxGeometry x="140" y="120" width="160" height="30" as="geometry" />
        </mxCell>
        <mxCell id="dswGkKhMzSl7C8TvJAAN-5" value="VM on dst server" style="text;html=1;strokeColor=none;fillColor=none;align=center;verticalAlign=middle;whiteSpace=wrap;rounded=0;fontSize=18;" parent="1" vertex="1">
          <mxGeometry x="420" y="120" width="160" height="30" as="geometry" />
        </mxCell>
        <mxCell id="dswGkKhMzSl7C8TvJAAN-6" value="&lt;font color=&quot;#00cc00&quot; style=&quot;font-size: 18px;&quot;&gt;&lt;b style=&quot;&quot;&gt;Running&lt;/b&gt;&lt;/font&gt;" style="text;html=1;strokeColor=none;fillColor=none;align=center;verticalAlign=middle;whiteSpace=wrap;rounded=0;" parent="1" vertex="1">
          <mxGeometry x="460" y="280" width="80" height="40" as="geometry" />
        </mxCell>
        <mxCell id="dswGkKhMzSl7C8TvJAAN-7" value="&lt;font color=&quot;#ff0000&quot; style=&quot;font-size: 18px;&quot;&gt;&lt;b style=&quot;&quot;&gt;Stopped&lt;/b&gt;&lt;/font&gt;" style="text;html=1;strokeColor=none;fillColor=none;align=center;verticalAlign=middle;whiteSpace=wrap;rounded=0;" parent="1" vertex="1">
          <mxGeometry x="180" y="280" width="80" height="40" as="geometry" />
        </mxCell>
        <mxCell id="dswGkKhMzSl7C8TvJAAN-8" value="&lt;font color=&quot;#000000&quot;&gt;devices&lt;br&gt;(Cpus, NICs)&lt;br&gt;&lt;/font&gt;" style="rounded=0;whiteSpace=wrap;html=1;fontSize=18;fontColor=#FF0000;fillColor=#E6FFCC;" parent="1" vertex="1">
          <mxGeometry x="440" y="320" width="120" height="60" as="geometry" />
        </mxCell>
        <mxCell id="dswGkKhMzSl7C8TvJAAN-9" value="no devices" style="rounded=0;whiteSpace=wrap;html=1;fontSize=18;fontColor=#000000;dashed=1;" parent="1" vertex="1">
          <mxGeometry x="160" y="320" width="120" height="60" as="geometry" />
        </mxCell>
        <mxCell id="dswGkKhMzSl7C8TvJAAN-10" value="" style="rounded=0;whiteSpace=wrap;html=1;fontSize=18;fontColor=#000000;fillColor=#E6FFCC;" parent="1" vertex="1">
          <mxGeometry x="440" y="380" width="120" height="120" as="geometry" />
        </mxCell>
        <mxCell id="dswGkKhMzSl7C8TvJAAN-11" value="Ram&lt;br&gt;(dirtied)" style="rounded=0;whiteSpace=wrap;html=1;fontSize=18;fontColor=#000000;fillColor=#E6FFCC;" parent="1" vertex="1">
          <mxGeometry x="160" y="380" width="60" height="60" as="geometry" />
        </mxCell>
        <mxCell id="dswGkKhMzSl7C8TvJAAN-12" value="" style="shape=flexArrow;endArrow=classic;html=1;rounded=0;fontSize=18;fontColor=#000000;fillColor=#66B2FF;strokeColor=none;" parent="1" edge="1">
          <mxGeometry width="50" height="50" relative="1" as="geometry">
            <mxPoint x="300" y="439" as="sourcePoint" />
            <mxPoint x="420" y="439" as="targetPoint" />
          </mxGeometry>
        </mxCell>
        <mxCell id="dswGkKhMzSl7C8TvJAAN-15" value="" style="shape=flexArrow;endArrow=classic;html=1;rounded=0;fontSize=18;fontColor=#000000;fillColor=#66B2FF;strokeColor=none;" parent="1" edge="1">
          <mxGeometry width="50" height="50" relative="1" as="geometry">
            <mxPoint x="420" y="220" as="sourcePoint" />
            <mxPoint x="300" y="220" as="targetPoint" />
          </mxGeometry>
        </mxCell>
        <mxCell id="dswGkKhMzSl7C8TvJAAN-18" value="" style="verticalLabelPosition=bottom;html=1;verticalAlign=top;align=center;strokeColor=none;fillColor=#00BEF2;shape=mxgraph.azure.message;pointerEvents=1;fontSize=18;fontColor=#000000;" parent="1" vertex="1">
          <mxGeometry x="330" y="160" width="60" height="40" as="geometry" />
        </mxCell>
        <mxCell id="dswGkKhMzSl7C8TvJAAN-19" value="Post-copy&lt;br&gt;page requests" style="text;html=1;strokeColor=none;fillColor=none;align=center;verticalAlign=middle;whiteSpace=wrap;rounded=0;fontSize=18;fontColor=#000000;" parent="1" vertex="1">
          <mxGeometry x="300" y="240" width="120" height="40" as="geometry" />
        </mxCell>
        <mxCell id="dswGkKhMzSl7C8TvJAAN-20" value="" style="shape=image;html=1;verticalAlign=top;verticalLabelPosition=bottom;labelBackgroundColor=#ffffff;imageAspect=0;aspect=fixed;image=https://cdn2.iconfinder.com/data/icons/bitsies/128/Document-128.png;fontSize=18;fontColor=#000000;fillColor=#E6FFCC;" parent="1" vertex="1">
          <mxGeometry x="300" y="389" width="40" height="40" as="geometry" />
        </mxCell>
        <mxCell id="dswGkKhMzSl7C8TvJAAN-22" value="Pages" style="text;html=1;strokeColor=none;fillColor=none;align=center;verticalAlign=middle;whiteSpace=wrap;rounded=0;fontSize=18;fontColor=#000000;" parent="1" vertex="1">
          <mxGeometry x="340" y="394" width="60" height="30" as="geometry" />
        </mxCell>
        <mxCell id="dswGkKhMzSl7C8TvJAAN-28" value="Ram" style="text;html=1;strokeColor=none;fillColor=none;align=center;verticalAlign=middle;whiteSpace=wrap;rounded=0;dashed=1;fontSize=18;fontColor=#000000;" parent="1" vertex="1">
          <mxGeometry x="190" y="450" width="60" height="40" as="geometry" />
        </mxCell>
        <mxCell id="dswGkKhMzSl7C8TvJAAN-29" value="Ram&lt;br&gt;(transferred)" style="text;html=1;strokeColor=none;fillColor=none;align=center;verticalAlign=middle;whiteSpace=wrap;rounded=0;dashed=1;fontSize=18;fontColor=#000000;" parent="1" vertex="1">
          <mxGeometry x="440" y="440" width="120" height="60" as="geometry" />
        </mxCell>
        <mxCell id="dswGkKhMzSl7C8TvJAAN-30" value="" style="rounded=0;whiteSpace=wrap;html=1;dashed=1;fontSize=18;fontColor=#000000;fillColor=default;" parent="1" vertex="1">
          <mxGeometry x="440" y="380" width="60" height="60" as="geometry" />
        </mxCell>
      </root>
    </mxGraphModel>
  </diagram>
</mxfile>
